<!-- TaskLoom Simple Calendar Icon with Checkmark -->
<svg xmlns="http://www.w3.org/2000/svg" viewBox="0 0 32 32" width="32" height="32">
  <defs>
    <linearGradient id="grad" x1="0%" y1="0%" x2="100%" y2="100%">
      <stop offset="0%" style="stop-color:#4285F4"/>
      <stop offset="100%" style="stop-color:#34A853"/>
    </linearGradient>
  </defs>
  
  <!-- Calendar body -->
  <rect x="4" y="6" width="24" height="20" fill="url(#grad)" rx="2"/>
  <rect x="6" y="8" width="20" height="16" fill="white" rx="1"/>
  
  <!-- Calendar bindings -->
  <rect x="3" y="3" width="2" height="6" fill="#666" rx="1"/>
  <rect x="9" y="3" width="2" height="6" fill="#666" rx="1"/>
  <rect x="21" y="3" width="2" height="6" fill="#666" rx="1"/>
  <rect x="27" y="3" width="2" height="6" fill="#666" rx="1"/>
  
  <!-- Calendar header -->
  <rect x="4" y="6" width="24" height="4" fill="url(#grad)" rx="2 2 0 0"/>
  
  <!-- Calendar grid -->
  <line x1="8" y1="12" x2="12" y2="12" stroke="#ddd" stroke-width="1"/>
  <line x1="14" y1="12" x2="18" y2="12" stroke="#ddd" stroke-width="1"/>
  <line x1="20" y1="12" x2="24" y2="12" stroke="#ddd" stroke-width="1"/>
  <line x1="8" y1="16" x2="12" y2="16" stroke="#ddd" stroke-width="1"/>
  <line x1="14" y1="16" x2="18" y2="16" stroke="#ddd" stroke-width="1"/>
  <line x1="20" y1="16" x2="24" y2="16" stroke="#ddd" stroke-width="1"/>
  
  <!-- Checkmark circle -->
  <circle cx="24" cy="24" r="6" fill="#34A853"/>
  <path d="M21 24 L23 26 L27 22" stroke="white" stroke-width="1.5" fill="none" stroke-linecap="round" stroke-linejoin="round"/>
</svg>
