<!-- TaskLoom Favicon - Standalone SVG Icon -->
<svg xmlns="http://www.w3.org/2000/svg" viewBox="0 0 32 32">
  <defs>
    <linearGradient id="iconGrad" x1="0%" y1="0%" x2="100%" y2="100%">
      <stop offset="0%" style="stop-color:#4285F4;stop-opacity:1" />
      <stop offset="100%" style="stop-color:#34A853;stop-opacity:1" />
    </linearGradient>
  </defs>
  
  <!-- Calendar Base -->
  <rect x="4" y="8" width="24" height="20" fill="url(#iconGrad)" rx="3"/>
  <rect x="6" y="10" width="20" height="16" fill="white" rx="2"/>
  
  <!-- Calendar Rings -->
  <rect x="2" y="5" width="3" height="6" fill="#666" rx="1"/>
  <rect x="27" y="5" width="3" height="6" fill="#666" rx="1"/>
  
  <!-- Calendar Grid Lines -->
  <line x1="9" y1="14" x2="12" y2="14" stroke="#ddd" stroke-width="1"/>
  <line x1="14" y1="14" x2="17" y2="14" stroke="#ddd" stroke-width="1"/>
  <line x1="19" y1="14" x2="22" y2="14" stroke="#ddd" stroke-width="1"/>
  
  <line x1="9" y1="17" x2="12" y2="17" stroke="#ddd" stroke-width="1"/>
  <line x1="14" y1="17" x2="17" y2="17" stroke="#ddd" stroke-width="1"/>
  <line x1="19" y1="17" x2="22" y2="17" stroke="#ddd" stroke-width="1"/>
  
  <line x1="9" y1="20" x2="12" y2="20" stroke="#ddd" stroke-width="1"/>
  <line x1="14" y1="20" x2="17" y2="20" stroke="#ddd" stroke-width="1"/>
  <line x1="19" y1="20" x2="22" y2="20" stroke="#ddd" stroke-width="1"/>
  
  <!-- Checkmark -->
  <circle cx="24" cy="24" r="6" fill="#34A853"/>
  <path d="M21 24 L23 26 L27 22" stroke="white" stroke-width="2" fill="none" stroke-linecap="round" stroke-linejoin="round"/>
</svg>
